<svg width="1440" height="412" viewBox="0 0 1440 412" fill="none" xmlns="http://www.w3.org/2000/svg">
<path d="M-54.5 384H352.113V277H692.451V180.5H1018.27V84H1614" stroke="#4F4F4F" stroke-dasharray="20 20"/>
<path d="M126 335.24C125.147 335.24 124.413 335.08 123.8 334.76C123.187 334.427 122.68 333.953 122.28 333.34C121.88 332.727 121.587 331.973 121.4 331.08C121.213 330.187 121.12 329.167 121.12 328.02C121.12 326.887 121.213 325.873 121.4 324.98C121.587 324.073 121.88 323.313 122.28 322.7C122.68 322.087 123.187 321.62 123.8 321.3C124.413 320.967 125.147 320.8 126 320.8C126.853 320.8 127.587 320.967 128.2 321.3C128.813 321.62 129.32 322.087 129.72 322.7C130.12 323.313 130.413 324.073 130.6 324.98C130.787 325.873 130.88 326.887 130.88 328.02C130.88 329.167 130.787 330.187 130.6 331.08C130.413 331.973 130.12 332.727 129.72 333.34C129.32 333.953 128.813 334.427 128.2 334.76C127.587 335.08 126.853 335.24 126 335.24ZM126 333.78C126.56 333.78 127.033 333.673 127.42 333.46C127.807 333.233 128.127 332.92 128.38 332.52C128.633 332.12 128.813 331.64 128.92 331.08C129.04 330.507 129.1 329.867 129.1 329.16V326.88C129.1 326.187 129.04 325.553 128.92 324.98C128.813 324.407 128.633 323.92 128.38 323.52C128.127 323.12 127.807 322.813 127.42 322.6C127.033 322.373 126.56 322.26 126 322.26C125.44 322.26 124.967 322.373 124.58 322.6C124.193 322.813 123.873 323.12 123.62 323.52C123.367 323.92 123.18 324.407 123.06 324.98C122.953 325.553 122.9 326.187 122.9 326.88V329.16C122.9 329.867 122.953 330.507 123.06 331.08C123.18 331.64 123.367 332.12 123.62 332.52C123.873 332.92 124.193 333.233 124.58 333.46C124.967 333.673 125.44 333.78 126 333.78ZM138.012 335.24C137.319 335.24 136.686 335.113 136.112 334.86C135.552 334.607 135.066 334.22 134.652 333.7C134.252 333.18 133.939 332.527 133.712 331.74C133.486 330.94 133.372 329.993 133.372 328.9C133.372 327.38 133.472 326.087 133.672 325.02C133.886 323.953 134.206 323.073 134.632 322.38C135.072 321.687 135.626 321.173 136.292 320.84C136.972 320.507 137.779 320.307 138.712 320.24L141.872 320.04V321.62L138.552 321.84C137.979 321.88 137.486 321.987 137.072 322.16C136.672 322.333 136.332 322.613 136.052 323C135.786 323.373 135.572 323.867 135.412 324.48C135.252 325.093 135.132 325.86 135.052 326.78H135.152C135.432 326.113 135.826 325.6 136.332 325.24C136.839 324.867 137.472 324.68 138.232 324.68C138.886 324.68 139.486 324.8 140.032 325.04C140.579 325.28 141.046 325.627 141.432 326.08C141.819 326.52 142.119 327.073 142.332 327.74C142.559 328.393 142.672 329.14 142.672 329.98C142.672 330.767 142.559 331.48 142.332 332.12C142.106 332.76 141.786 333.313 141.372 333.78C140.959 334.247 140.466 334.607 139.892 334.86C139.332 335.113 138.706 335.24 138.012 335.24ZM138.012 333.86C138.879 333.86 139.586 333.593 140.132 333.06C140.692 332.513 140.972 331.72 140.972 330.68V329.42C140.972 328.3 140.699 327.46 140.152 326.9C139.619 326.34 138.919 326.06 138.052 326.06C137.039 326.06 136.286 326.307 135.792 326.8C135.312 327.28 135.072 327.9 135.072 328.66V330.68C135.072 331.72 135.339 332.513 135.872 333.06C136.419 333.593 137.132 333.86 138.012 333.86ZM145.884 324.68H147.484V326.36H147.564C148.231 325.08 149.291 324.44 150.744 324.44C152.011 324.44 152.998 324.913 153.704 325.86C154.424 326.807 154.784 328.133 154.784 329.84C154.784 331.547 154.424 332.873 153.704 333.82C152.998 334.767 152.011 335.24 150.744 335.24C149.291 335.24 148.231 334.6 147.564 333.32H147.484V339H145.884V324.68ZM150.124 333.82C151.058 333.82 151.778 333.54 152.284 332.98C152.804 332.407 153.064 331.653 153.064 330.72V328.96C153.064 328.027 152.804 327.28 152.284 326.72C151.778 326.147 151.058 325.86 150.124 325.86C149.764 325.86 149.424 325.907 149.104 326C148.784 326.093 148.504 326.233 148.264 326.42C148.024 326.593 147.831 326.813 147.684 327.08C147.551 327.333 147.484 327.633 147.484 327.98V331.7C147.484 332.047 147.551 332.353 147.684 332.62C147.831 332.873 148.024 333.093 148.264 333.28C148.504 333.453 148.784 333.587 149.104 333.68C149.424 333.773 149.764 333.82 150.124 333.82ZM165.877 335C165.25 335 164.803 334.84 164.537 334.52C164.27 334.2 164.103 333.8 164.037 333.32H163.937C163.71 333.92 163.343 334.393 162.837 334.74C162.343 335.073 161.677 335.24 160.837 335.24C159.757 335.24 158.897 334.96 158.257 334.4C157.617 333.84 157.297 333.073 157.297 332.1C157.297 331.14 157.643 330.4 158.337 329.88C159.043 329.36 160.177 329.1 161.737 329.1H163.937V328.08C163.937 327.32 163.723 326.753 163.297 326.38C162.87 325.993 162.263 325.8 161.477 325.8C160.783 325.8 160.217 325.94 159.777 326.22C159.337 326.487 158.983 326.853 158.717 327.32L157.637 326.52C157.77 326.253 157.95 325.993 158.177 325.74C158.403 325.487 158.683 325.267 159.017 325.08C159.35 324.88 159.73 324.727 160.157 324.62C160.583 324.5 161.057 324.44 161.577 324.44C162.79 324.44 163.75 324.747 164.457 325.36C165.177 325.973 165.537 326.827 165.537 327.92V333.6H166.977V335H165.877ZM161.117 333.9C161.53 333.9 161.903 333.853 162.237 333.76C162.583 333.653 162.883 333.52 163.137 333.36C163.39 333.187 163.583 332.987 163.717 332.76C163.863 332.52 163.937 332.267 163.937 332V330.3H161.737C160.777 330.3 160.077 330.433 159.637 330.7C159.197 330.967 158.977 331.353 158.977 331.86V332.28C158.977 332.813 159.163 333.22 159.537 333.5C159.923 333.767 160.45 333.9 161.117 333.9ZM173.989 335.24C173.295 335.24 172.662 335.113 172.089 334.86C171.529 334.607 171.042 334.22 170.629 333.7C170.229 333.18 169.915 332.527 169.689 331.74C169.462 330.94 169.349 329.993 169.349 328.9C169.349 327.38 169.449 326.087 169.649 325.02C169.862 323.953 170.182 323.073 170.609 322.38C171.049 321.687 171.602 321.173 172.269 320.84C172.949 320.507 173.755 320.307 174.689 320.24L177.849 320.04V321.62L174.529 321.84C173.955 321.88 173.462 321.987 173.049 322.16C172.649 322.333 172.309 322.613 172.029 323C171.762 323.373 171.549 323.867 171.389 324.48C171.229 325.093 171.109 325.86 171.029 326.78H171.129C171.409 326.113 171.802 325.6 172.309 325.24C172.815 324.867 173.449 324.68 174.209 324.68C174.862 324.68 175.462 324.8 176.009 325.04C176.555 325.28 177.022 325.627 177.409 326.08C177.795 326.52 178.095 327.073 178.309 327.74C178.535 328.393 178.649 329.14 178.649 329.98C178.649 330.767 178.535 331.48 178.309 332.12C178.082 332.76 177.762 333.313 177.349 333.78C176.935 334.247 176.442 334.607 175.869 334.86C175.309 335.113 174.682 335.24 173.989 335.24ZM173.989 333.86C174.855 333.86 175.562 333.593 176.109 333.06C176.669 332.513 176.949 331.72 176.949 330.68V329.42C176.949 328.3 176.675 327.46 176.129 326.9C175.595 326.34 174.895 326.06 174.029 326.06C173.015 326.06 172.262 326.307 171.769 326.8C171.289 327.28 171.049 327.9 171.049 328.66V330.68C171.049 331.72 171.315 332.513 171.849 333.06C172.395 333.593 173.109 333.86 173.989 333.86ZM185.961 335.24C185.241 335.24 184.588 335.113 184.001 334.86C183.428 334.607 182.934 334.247 182.521 333.78C182.121 333.3 181.814 332.733 181.601 332.08C181.388 331.413 181.281 330.667 181.281 329.84C181.281 329.027 181.388 328.287 181.601 327.62C181.814 326.953 182.121 326.387 182.521 325.92C182.934 325.44 183.428 325.073 184.001 324.82C184.588 324.567 185.241 324.44 185.961 324.44C186.681 324.44 187.328 324.567 187.901 324.82C188.488 325.073 188.981 325.44 189.381 325.92C189.794 326.387 190.108 326.953 190.321 327.62C190.534 328.287 190.641 329.027 190.641 329.84C190.641 330.667 190.534 331.413 190.321 332.08C190.108 332.733 189.794 333.3 189.381 333.78C188.981 334.247 188.488 334.607 187.901 334.86C187.328 335.113 186.681 335.24 185.961 335.24ZM185.961 333.86C186.854 333.86 187.574 333.593 188.121 333.06C188.668 332.527 188.941 331.7 188.941 330.58V329.1C188.941 327.98 188.668 327.153 188.121 326.62C187.574 326.087 186.854 325.82 185.961 325.82C185.068 325.82 184.348 326.087 183.801 326.62C183.254 327.153 182.981 327.98 182.981 329.1V330.58C182.981 331.7 183.254 332.527 183.801 333.06C184.348 333.593 185.068 333.86 185.961 333.86ZM197.153 326.04H193.353V324.68H202.553V326.04H198.753V335H197.153V326.04ZM206.085 324.68H207.685V329H209.885L212.665 324.68H214.325L211.805 328.6C211.579 328.947 211.379 329.193 211.205 329.34C211.032 329.473 210.825 329.573 210.585 329.64V329.72C210.852 329.76 211.079 329.853 211.265 330C211.452 330.133 211.645 330.373 211.845 330.72L213.525 333.64H214.685V335H213.525C213.179 335 212.879 334.907 212.625 334.72C212.372 334.533 212.119 334.227 211.865 333.8L209.885 330.36H207.685V335H206.085V324.68ZM225.838 335C225.211 335 224.764 334.84 224.498 334.52C224.231 334.2 224.064 333.8 223.998 333.32H223.898C223.671 333.92 223.304 334.393 222.798 334.74C222.304 335.073 221.638 335.24 220.798 335.24C219.718 335.24 218.858 334.96 218.218 334.4C217.578 333.84 217.257 333.073 217.257 332.1C217.257 331.14 217.604 330.4 218.298 329.88C219.004 329.36 220.138 329.1 221.698 329.1H223.898V328.08C223.898 327.32 223.684 326.753 223.258 326.38C222.831 325.993 222.224 325.8 221.438 325.8C220.744 325.8 220.178 325.94 219.738 326.22C219.298 326.487 218.944 326.853 218.678 327.32L217.598 326.52C217.731 326.253 217.911 325.993 218.138 325.74C218.364 325.487 218.644 325.267 218.978 325.08C219.311 324.88 219.691 324.727 220.118 324.62C220.544 324.5 221.018 324.44 221.538 324.44C222.751 324.44 223.711 324.747 224.418 325.36C225.138 325.973 225.498 326.827 225.498 327.92V333.6H226.938V335H225.838ZM221.077 333.9C221.491 333.9 221.864 333.853 222.198 333.76C222.544 333.653 222.844 333.52 223.098 333.36C223.351 333.187 223.544 332.987 223.678 332.76C223.824 332.52 223.898 332.267 223.898 332V330.3H221.698C220.738 330.3 220.038 330.433 219.598 330.7C219.158 330.967 218.938 331.353 218.938 331.86V332.28C218.938 332.813 219.124 333.22 219.498 333.5C219.884 333.767 220.411 333.9 221.077 333.9ZM245.502 335.24C244.435 335.24 243.549 335.067 242.842 334.72C242.149 334.373 241.582 333.88 241.142 333.24L242.322 332.28C242.642 332.787 243.062 333.18 243.582 333.46C244.102 333.727 244.742 333.86 245.502 333.86C246.462 333.86 247.155 333.707 247.582 333.4C248.009 333.093 248.222 332.7 248.222 332.22V331.94C248.222 331.42 248.049 331.027 247.702 330.76C247.369 330.48 246.882 330.34 246.242 330.34H243.462V329H246.042C247.349 329 248.002 328.513 248.002 327.54V327.3C248.002 326.86 247.815 326.507 247.442 326.24C247.082 325.96 246.449 325.82 245.542 325.82C244.742 325.82 244.095 325.953 243.602 326.22C243.122 326.487 242.729 326.86 242.422 327.34L241.302 326.58C241.769 325.9 242.335 325.373 243.002 325C243.669 324.627 244.542 324.44 245.622 324.44C246.995 324.44 248.015 324.687 248.682 325.18C249.362 325.673 249.702 326.353 249.702 327.22C249.702 327.86 249.535 328.367 249.202 328.74C248.869 329.113 248.402 329.373 247.802 329.52V329.6C248.495 329.707 249.022 329.973 249.382 330.4C249.742 330.813 249.922 331.347 249.922 332C249.922 333 249.535 333.793 248.762 334.38C248.002 334.953 246.915 335.24 245.502 335.24ZM261.814 335C261.187 335 260.741 334.84 260.474 334.52C260.207 334.2 260.041 333.8 259.974 333.32H259.874C259.647 333.92 259.281 334.393 258.774 334.74C258.281 335.073 257.614 335.24 256.774 335.24C255.694 335.24 254.834 334.96 254.194 334.4C253.554 333.84 253.234 333.073 253.234 332.1C253.234 331.14 253.581 330.4 254.274 329.88C254.981 329.36 256.114 329.1 257.674 329.1H259.874V328.08C259.874 327.32 259.661 326.753 259.234 326.38C258.807 325.993 258.201 325.8 257.414 325.8C256.721 325.8 256.154 325.94 255.714 326.22C255.274 326.487 254.921 326.853 254.654 327.32L253.574 326.52C253.707 326.253 253.887 325.993 254.114 325.74C254.341 325.487 254.621 325.267 254.954 325.08C255.287 324.88 255.667 324.727 256.094 324.62C256.521 324.5 256.994 324.44 257.514 324.44C258.727 324.44 259.687 324.747 260.394 325.36C261.114 325.973 261.474 326.827 261.474 327.92V333.6H262.914V335H261.814ZM257.054 333.9C257.467 333.9 257.841 333.853 258.174 333.76C258.521 333.653 258.821 333.52 259.074 333.36C259.327 333.187 259.521 332.987 259.654 332.76C259.801 332.52 259.874 332.267 259.874 332V330.3H257.674C256.714 330.3 256.014 330.433 255.574 330.7C255.134 330.967 254.914 331.353 254.914 331.86V332.28C254.914 332.813 255.101 333.22 255.474 333.5C255.861 333.767 256.387 333.9 257.054 333.9ZM264.346 333.64H265.506C265.933 332.96 266.266 332.16 266.506 331.24C266.76 330.307 266.886 329.213 266.886 327.96V324.68H273.546V333.64H275.246V337.8H273.786V335H265.806V337.8H264.346V333.64ZM271.946 333.64V326.04H268.446V328.04C268.446 329.28 268.346 330.347 268.146 331.24C267.946 332.12 267.646 332.92 267.246 333.64H271.946ZM285.798 335C285.172 335 284.725 334.84 284.458 334.52C284.192 334.2 284.025 333.8 283.958 333.32H283.858C283.632 333.92 283.265 334.393 282.758 334.74C282.265 335.073 281.598 335.24 280.758 335.24C279.678 335.24 278.818 334.96 278.178 334.4C277.538 333.84 277.218 333.073 277.218 332.1C277.218 331.14 277.565 330.4 278.258 329.88C278.965 329.36 280.098 329.1 281.658 329.1H283.858V328.08C283.858 327.32 283.645 326.753 283.218 326.38C282.792 325.993 282.185 325.8 281.398 325.8C280.705 325.8 280.138 325.94 279.698 326.22C279.258 326.487 278.905 326.853 278.638 327.32L277.558 326.52C277.692 326.253 277.872 325.993 278.098 325.74C278.325 325.487 278.605 325.267 278.938 325.08C279.272 324.88 279.652 324.727 280.078 324.62C280.505 324.5 280.978 324.44 281.498 324.44C282.712 324.44 283.672 324.747 284.378 325.36C285.098 325.973 285.458 326.827 285.458 327.92V333.6H286.898V335H285.798ZM281.038 333.9C281.452 333.9 281.825 333.853 282.158 333.76C282.505 333.653 282.805 333.52 283.058 333.36C283.312 333.187 283.505 332.987 283.638 332.76C283.785 332.52 283.858 332.267 283.858 332V330.3H281.658C280.698 330.3 279.998 330.433 279.558 330.7C279.118 330.967 278.898 331.353 278.898 331.86V332.28C278.898 332.813 279.085 333.22 279.458 333.5C279.845 333.767 280.372 333.9 281.038 333.9ZM296.091 330.26H295.991C295.617 330.673 295.191 330.987 294.711 331.2C294.244 331.4 293.644 331.5 292.911 331.5C291.791 331.5 290.937 331.24 290.351 330.72C289.777 330.187 289.491 329.387 289.491 328.32V324.68H291.091V328.18C291.091 328.82 291.271 329.293 291.631 329.6C291.991 329.907 292.577 330.06 293.391 330.06C294.191 330.06 294.837 329.96 295.331 329.76C295.837 329.547 296.091 329.227 296.091 328.8V324.68H297.691V335H296.091V330.26ZM301.783 324.68H303.383V329.94L303.223 332.58H303.303L308.483 324.68H309.983V335H308.383V329.74L308.543 327.1H308.463L303.283 335H301.783V324.68Z" fill="white" fill-opacity="0.5"/>
<path d="M452.66 217.04H461.34V231H459.66V218.5H454.34V231H452.66V217.04ZM468.992 231.24C468.272 231.24 467.619 231.113 467.032 230.86C466.459 230.607 465.966 230.247 465.552 229.78C465.152 229.3 464.846 228.733 464.632 228.08C464.419 227.413 464.312 226.667 464.312 225.84C464.312 225.027 464.419 224.287 464.632 223.62C464.846 222.953 465.152 222.387 465.552 221.92C465.966 221.44 466.459 221.073 467.032 220.82C467.619 220.567 468.272 220.44 468.992 220.44C469.712 220.44 470.359 220.567 470.932 220.82C471.519 221.073 472.012 221.44 472.412 221.92C472.826 222.387 473.139 222.953 473.352 223.62C473.566 224.287 473.672 225.027 473.672 225.84C473.672 226.667 473.566 227.413 473.352 228.08C473.139 228.733 472.826 229.3 472.412 229.78C472.012 230.247 471.519 230.607 470.932 230.86C470.359 231.113 469.712 231.24 468.992 231.24ZM468.992 229.86C469.886 229.86 470.606 229.593 471.152 229.06C471.699 228.527 471.972 227.7 471.972 226.58V225.1C471.972 223.98 471.699 223.153 471.152 222.62C470.606 222.087 469.886 221.82 468.992 221.82C468.099 221.82 467.379 222.087 466.832 222.62C466.286 223.153 466.012 223.98 466.012 225.1V226.58C466.012 227.7 466.286 228.527 466.832 229.06C467.379 229.593 468.099 229.86 468.992 229.86ZM476.884 220.68H478.484V225.94L478.324 228.58H478.404L483.584 220.68H485.084V231H483.484V225.74L483.644 223.1H483.564L478.384 231H476.884V220.68ZM493.337 231.24C492.59 231.24 491.923 231.113 491.337 230.86C490.763 230.593 490.277 230.227 489.877 229.76C489.477 229.293 489.17 228.727 488.957 228.06C488.757 227.393 488.657 226.653 488.657 225.84C488.657 225.027 488.763 224.287 488.977 223.62C489.19 222.953 489.497 222.387 489.897 221.92C490.297 221.44 490.783 221.073 491.357 220.82C491.93 220.567 492.583 220.44 493.317 220.44C494.317 220.44 495.13 220.66 495.757 221.1C496.383 221.54 496.843 222.113 497.137 222.82L495.857 223.5C495.67 222.967 495.357 222.553 494.917 222.26C494.49 221.967 493.957 221.82 493.317 221.82C492.85 221.82 492.43 221.9 492.057 222.06C491.697 222.207 491.39 222.42 491.137 222.7C490.883 222.98 490.69 223.313 490.557 223.7C490.437 224.087 490.377 224.507 490.377 224.96V226.72C490.377 227.173 490.437 227.593 490.557 227.98C490.69 228.367 490.883 228.7 491.137 228.98C491.39 229.26 491.703 229.48 492.077 229.64C492.45 229.787 492.877 229.86 493.357 229.86C494.05 229.86 494.623 229.7 495.077 229.38C495.53 229.06 495.89 228.62 496.157 228.06L497.297 228.84C496.99 229.533 496.51 230.107 495.857 230.56C495.217 231.013 494.377 231.24 493.337 231.24ZM501.109 220.68H502.709V225H504.909L507.689 220.68H509.349L506.829 224.6C506.602 224.947 506.402 225.193 506.229 225.34C506.055 225.473 505.849 225.573 505.609 225.64V225.72C505.875 225.76 506.102 225.853 506.289 226C506.475 226.133 506.669 226.373 506.869 226.72L508.549 229.64H509.709V231H508.549C508.202 231 507.902 230.907 507.649 230.72C507.395 230.533 507.142 230.227 506.889 229.8L504.909 226.36H502.709V231H501.109V220.68ZM524.853 220.68H526.453V222.36H526.533C527.2 221.08 528.26 220.44 529.713 220.44C530.98 220.44 531.966 220.913 532.673 221.86C533.393 222.807 533.753 224.133 533.753 225.84C533.753 227.547 533.393 228.873 532.673 229.82C531.966 230.767 530.98 231.24 529.713 231.24C528.26 231.24 527.2 230.6 526.533 229.32H526.453V235H524.853V220.68ZM529.093 229.82C530.026 229.82 530.746 229.54 531.253 228.98C531.773 228.407 532.033 227.653 532.033 226.72V224.96C532.033 224.027 531.773 223.28 531.253 222.72C530.746 222.147 530.026 221.86 529.093 221.86C528.733 221.86 528.393 221.907 528.073 222C527.753 222.093 527.473 222.233 527.233 222.42C526.993 222.593 526.8 222.813 526.653 223.08C526.52 223.333 526.453 223.633 526.453 223.98V227.7C526.453 228.047 526.52 228.353 526.653 228.62C526.8 228.873 526.993 229.093 527.233 229.28C527.473 229.453 527.753 229.587 528.073 229.68C528.393 229.773 528.733 229.82 529.093 229.82ZM541.125 231.24C540.379 231.24 539.705 231.113 539.105 230.86C538.519 230.607 538.012 230.247 537.585 229.78C537.172 229.3 536.852 228.733 536.625 228.08C536.399 227.413 536.285 226.673 536.285 225.86C536.285 225.033 536.399 224.287 536.625 223.62C536.865 222.953 537.192 222.387 537.605 221.92C538.019 221.44 538.512 221.073 539.085 220.82C539.672 220.567 540.319 220.44 541.025 220.44C541.719 220.44 542.345 220.567 542.905 220.82C543.479 221.073 543.965 221.427 544.365 221.88C544.765 222.32 545.072 222.847 545.285 223.46C545.499 224.073 545.605 224.747 545.605 225.48V226.24H537.965V226.72C537.965 227.173 538.039 227.593 538.185 227.98C538.332 228.367 538.539 228.7 538.805 228.98C539.085 229.26 539.419 229.48 539.805 229.64C540.205 229.787 540.645 229.86 541.125 229.86C541.819 229.86 542.419 229.7 542.925 229.38C543.432 229.06 543.819 228.62 544.085 228.06L545.265 228.86C544.959 229.553 544.445 230.127 543.725 230.58C543.019 231.02 542.152 231.24 541.125 231.24ZM541.025 221.76C540.585 221.76 540.179 221.84 539.805 222C539.432 222.16 539.105 222.38 538.825 222.66C538.559 222.94 538.345 223.273 538.185 223.66C538.039 224.033 537.965 224.447 537.965 224.9V225.04H543.885V224.82C543.885 224.367 543.812 223.953 543.665 223.58C543.532 223.207 543.339 222.887 543.085 222.62C542.845 222.34 542.545 222.127 542.185 221.98C541.839 221.833 541.452 221.76 541.025 221.76ZM548.018 220.68H549.498V229.68H552.198V220.68H553.678V229.68H556.378V220.68H557.858V231H548.018V220.68ZM565.11 231.24C564.363 231.24 563.69 231.113 563.09 230.86C562.503 230.607 561.996 230.247 561.57 229.78C561.156 229.3 560.836 228.733 560.61 228.08C560.383 227.413 560.27 226.673 560.27 225.86C560.27 225.033 560.383 224.287 560.61 223.62C560.85 222.953 561.176 222.387 561.59 221.92C562.003 221.44 562.496 221.073 563.07 220.82C563.656 220.567 564.303 220.44 565.01 220.44C565.703 220.44 566.33 220.567 566.89 220.82C567.463 221.073 567.95 221.427 568.35 221.88C568.75 222.32 569.056 222.847 569.27 223.46C569.483 224.073 569.59 224.747 569.59 225.48V226.24H561.95V226.72C561.95 227.173 562.023 227.593 562.17 227.98C562.316 228.367 562.523 228.7 562.79 228.98C563.07 229.26 563.403 229.48 563.79 229.64C564.19 229.787 564.63 229.86 565.11 229.86C565.803 229.86 566.403 229.7 566.91 229.38C567.416 229.06 567.803 228.62 568.07 228.06L569.25 228.86C568.943 229.553 568.43 230.127 567.71 230.58C567.003 231.02 566.136 231.24 565.11 231.24ZM565.01 221.76C564.57 221.76 564.163 221.84 563.79 222C563.416 222.16 563.09 222.38 562.81 222.66C562.543 222.94 562.33 223.273 562.17 223.66C562.023 224.033 561.95 224.447 561.95 224.9V225.04H567.87V224.82C567.87 224.367 567.796 223.953 567.65 223.58C567.516 223.207 567.323 222.887 567.07 222.62C566.83 222.34 566.53 222.127 566.17 221.98C565.823 221.833 565.436 221.76 565.01 221.76ZM572.822 220.68H574.422V225H579.422V220.68H581.022V231H579.422V226.36H574.422V231H572.822V220.68ZM584.814 220.68H586.414V225.94L586.254 228.58H586.334L591.514 220.68H593.014V231H591.414V225.74L591.574 223.1H591.494L586.314 231H584.814V220.68ZM596.266 229.64H597.426L598.326 227.94C598.486 227.633 598.66 227.4 598.846 227.24C599.033 227.08 599.26 226.98 599.526 226.94V226.86C598.686 226.82 598 226.553 597.466 226.06C596.946 225.553 596.686 224.82 596.686 223.86C596.686 222.873 596.986 222.1 597.586 221.54C598.186 220.967 599.013 220.68 600.066 220.68H604.706V231H603.106V227.02H600.606L599.186 229.68C598.946 230.12 598.686 230.453 598.406 230.68C598.14 230.893 597.793 231 597.366 231H596.266V229.64ZM603.106 222.04H600.306C599.706 222.04 599.233 222.16 598.886 222.4C598.553 222.64 598.386 223.027 598.386 223.56V224.18C598.386 224.713 598.553 225.1 598.886 225.34C599.233 225.58 599.706 225.7 600.306 225.7H603.106V222.04Z" fill="white" fill-opacity="0.5"/>
<path d="M770.84 130.5V143H769.16V130.5H764.5V129.04H775.5V130.5H770.84ZM782.172 143.24C781.426 143.24 780.752 143.113 780.152 142.86C779.566 142.607 779.059 142.247 778.632 141.78C778.219 141.3 777.899 140.733 777.672 140.08C777.446 139.413 777.332 138.673 777.332 137.86C777.332 137.033 777.446 136.287 777.672 135.62C777.912 134.953 778.239 134.387 778.652 133.92C779.066 133.44 779.559 133.073 780.132 132.82C780.719 132.567 781.366 132.44 782.072 132.44C782.766 132.44 783.392 132.567 783.952 132.82C784.526 133.073 785.012 133.427 785.412 133.88C785.812 134.32 786.119 134.847 786.332 135.46C786.546 136.073 786.652 136.747 786.652 137.48V138.24H779.012V138.72C779.012 139.173 779.086 139.593 779.232 139.98C779.379 140.367 779.586 140.7 779.852 140.98C780.132 141.26 780.466 141.48 780.852 141.64C781.252 141.787 781.692 141.86 782.172 141.86C782.866 141.86 783.466 141.7 783.972 141.38C784.479 141.06 784.866 140.62 785.132 140.06L786.312 140.86C786.006 141.553 785.492 142.127 784.772 142.58C784.066 143.02 783.199 143.24 782.172 143.24ZM782.072 133.76C781.632 133.76 781.226 133.84 780.852 134C780.479 134.16 780.152 134.38 779.872 134.66C779.606 134.94 779.392 135.273 779.232 135.66C779.086 136.033 779.012 136.447 779.012 136.9V137.04H784.932V136.82C784.932 136.367 784.859 135.953 784.712 135.58C784.579 135.207 784.386 134.887 784.132 134.62C783.892 134.34 783.592 134.127 783.232 133.98C782.886 133.833 782.499 133.76 782.072 133.76ZM794.344 143.24C793.598 143.24 792.931 143.113 792.344 142.86C791.771 142.593 791.284 142.227 790.884 141.76C790.484 141.293 790.178 140.727 789.964 140.06C789.764 139.393 789.664 138.653 789.664 137.84C789.664 137.027 789.771 136.287 789.984 135.62C790.198 134.953 790.504 134.387 790.904 133.92C791.304 133.44 791.791 133.073 792.364 132.82C792.938 132.567 793.591 132.44 794.324 132.44C795.324 132.44 796.138 132.66 796.764 133.1C797.391 133.54 797.851 134.113 798.144 134.82L796.864 135.5C796.678 134.967 796.364 134.553 795.924 134.26C795.498 133.967 794.964 133.82 794.324 133.82C793.858 133.82 793.438 133.9 793.064 134.06C792.704 134.207 792.398 134.42 792.144 134.7C791.891 134.98 791.698 135.313 791.564 135.7C791.444 136.087 791.384 136.507 791.384 136.96V138.72C791.384 139.173 791.444 139.593 791.564 139.98C791.698 140.367 791.891 140.7 792.144 140.98C792.398 141.26 792.711 141.48 793.084 141.64C793.458 141.787 793.884 141.86 794.364 141.86C795.058 141.86 795.631 141.7 796.084 141.38C796.538 141.06 796.898 140.62 797.164 140.06L798.304 140.84C797.998 141.533 797.518 142.107 796.864 142.56C796.224 143.013 795.384 143.24 794.344 143.24ZM805.177 134.04H801.377V132.68H810.577V134.04H806.777V143H805.177V134.04ZM813.869 132.68H815.469V137.94L815.309 140.58H815.389L820.569 132.68H822.069V143H820.469V137.74L820.629 135.1H820.549L815.369 143H813.869V132.68ZM825.861 132.68H827.461V134.36H827.541C828.208 133.08 829.268 132.44 830.721 132.44C831.988 132.44 832.974 132.913 833.681 133.86C834.401 134.807 834.761 136.133 834.761 137.84C834.761 139.547 834.401 140.873 833.681 141.82C832.974 142.767 831.988 143.24 830.721 143.24C829.268 143.24 828.208 142.6 827.541 141.32H827.461V147H825.861V132.68ZM830.101 141.82C831.034 141.82 831.754 141.54 832.261 140.98C832.781 140.407 833.041 139.653 833.041 138.72V136.96C833.041 136.027 832.781 135.28 832.261 134.72C831.754 134.147 831.034 133.86 830.101 133.86C829.741 133.86 829.401 133.907 829.081 134C828.761 134.093 828.481 134.233 828.241 134.42C828.001 134.593 827.808 134.813 827.661 135.08C827.528 135.333 827.461 135.633 827.461 135.98V139.7C827.461 140.047 827.528 140.353 827.661 140.62C827.808 140.873 828.001 141.093 828.241 141.28C828.481 141.453 828.761 141.587 829.081 141.68C829.401 141.773 829.741 141.82 830.101 141.82ZM841.953 143.24C841.233 143.24 840.58 143.113 839.993 142.86C839.42 142.607 838.926 142.247 838.513 141.78C838.113 141.3 837.806 140.733 837.593 140.08C837.38 139.413 837.273 138.667 837.273 137.84C837.273 137.027 837.38 136.287 837.593 135.62C837.806 134.953 838.113 134.387 838.513 133.92C838.926 133.44 839.42 133.073 839.993 132.82C840.58 132.567 841.233 132.44 841.953 132.44C842.673 132.44 843.32 132.567 843.893 132.82C844.48 133.073 844.973 133.44 845.373 133.92C845.786 134.387 846.1 134.953 846.313 135.62C846.526 136.287 846.633 137.027 846.633 137.84C846.633 138.667 846.526 139.413 846.313 140.08C846.1 140.733 845.786 141.3 845.373 141.78C844.973 142.247 844.48 142.607 843.893 142.86C843.32 143.113 842.673 143.24 841.953 143.24ZM841.953 141.86C842.846 141.86 843.566 141.593 844.113 141.06C844.66 140.527 844.933 139.7 844.933 138.58V137.1C844.933 135.98 844.66 135.153 844.113 134.62C843.566 134.087 842.846 133.82 841.953 133.82C841.06 133.82 840.34 134.087 839.793 134.62C839.246 135.153 838.973 135.98 838.973 137.1V138.58C838.973 139.7 839.246 140.527 839.793 141.06C840.34 141.593 841.06 141.86 841.953 141.86ZM850.085 132.68H855.345C856.185 132.68 856.845 132.92 857.325 133.4C857.805 133.867 858.045 134.5 858.045 135.3C858.045 136.593 857.372 137.32 856.025 137.48V137.56C856.825 137.627 857.419 137.88 857.805 138.32C858.205 138.747 858.405 139.28 858.405 139.92C858.405 140.333 858.339 140.727 858.205 141.1C858.072 141.473 857.879 141.8 857.625 142.08C857.372 142.36 857.059 142.587 856.685 142.76C856.312 142.92 855.885 143 855.405 143H850.085V132.68ZM855.005 141.72C855.552 141.72 855.972 141.587 856.265 141.32C856.559 141.053 856.705 140.687 856.705 140.22V139.76C856.705 139.293 856.559 138.933 856.265 138.68C855.985 138.413 855.605 138.28 855.125 138.28H851.685V141.72H855.005ZM854.925 137.02C855.365 137.02 855.712 136.907 855.965 136.68C856.219 136.453 856.345 136.133 856.345 135.72V135.28C856.345 134.867 856.219 134.547 855.965 134.32C855.712 134.08 855.365 133.96 854.925 133.96H851.685V137.02H854.925ZM869.838 143C869.211 143 868.764 142.84 868.498 142.52C868.231 142.2 868.064 141.8 867.998 141.32H867.898C867.671 141.92 867.304 142.393 866.798 142.74C866.304 143.073 865.638 143.24 864.798 143.24C863.718 143.24 862.858 142.96 862.218 142.4C861.578 141.84 861.257 141.073 861.257 140.1C861.257 139.14 861.604 138.4 862.298 137.88C863.004 137.36 864.138 137.1 865.698 137.1H867.898V136.08C867.898 135.32 867.684 134.753 867.258 134.38C866.831 133.993 866.224 133.8 865.438 133.8C864.744 133.8 864.178 133.94 863.738 134.22C863.298 134.487 862.944 134.853 862.678 135.32L861.598 134.52C861.731 134.253 861.911 133.993 862.138 133.74C862.364 133.487 862.644 133.267 862.978 133.08C863.311 132.88 863.691 132.727 864.118 132.62C864.544 132.5 865.018 132.44 865.538 132.44C866.751 132.44 867.711 132.747 868.418 133.36C869.138 133.973 869.498 134.827 869.498 135.92V141.6H870.938V143H869.838ZM865.077 141.9C865.491 141.9 865.864 141.853 866.198 141.76C866.544 141.653 866.844 141.52 867.098 141.36C867.351 141.187 867.544 140.987 867.678 140.76C867.824 140.52 867.898 140.267 867.898 140V138.3H865.698C864.738 138.3 864.038 138.433 863.598 138.7C863.158 138.967 862.938 139.353 862.938 139.86V140.28C862.938 140.813 863.124 141.22 863.498 141.5C863.884 141.767 864.411 141.9 865.077 141.9ZM873.83 132.68H875.43V137H880.43V132.68H882.03V143H880.43V138.36H875.43V143H873.83V132.68ZM885.822 132.68H887.422V137.94L887.262 140.58H887.342L892.522 132.68H894.022V143H892.422V137.74L892.582 135.1H892.502L887.322 143H885.822V132.68ZM902.094 143.24C901.347 143.24 900.674 143.113 900.074 142.86C899.487 142.607 898.981 142.247 898.554 141.78C898.141 141.3 897.821 140.733 897.594 140.08C897.367 139.413 897.254 138.673 897.254 137.86C897.254 137.033 897.367 136.287 897.594 135.62C897.834 134.953 898.161 134.387 898.574 133.92C898.987 133.44 899.481 133.073 900.054 132.82C900.641 132.567 901.287 132.44 901.994 132.44C902.687 132.44 903.314 132.567 903.874 132.82C904.447 133.073 904.934 133.427 905.334 133.88C905.734 134.32 906.041 134.847 906.254 135.46C906.467 136.073 906.574 136.747 906.574 137.48V138.24H898.934V138.72C898.934 139.173 899.007 139.593 899.154 139.98C899.301 140.367 899.507 140.7 899.774 140.98C900.054 141.26 900.387 141.48 900.774 141.64C901.174 141.787 901.614 141.86 902.094 141.86C902.787 141.86 903.387 141.7 903.894 141.38C904.401 141.06 904.787 140.62 905.054 140.06L906.234 140.86C905.927 141.553 905.414 142.127 904.694 142.58C903.987 143.02 903.121 143.24 902.094 143.24ZM901.994 133.76C901.554 133.76 901.147 133.84 900.774 134C900.401 134.16 900.074 134.38 899.794 134.66C899.527 134.94 899.314 135.273 899.154 135.66C899.007 136.033 898.934 136.447 898.934 136.9V137.04H904.854V136.82C904.854 136.367 904.781 135.953 904.634 135.58C904.501 135.207 904.307 134.887 904.054 134.62C903.814 134.34 903.514 134.127 903.154 133.98C902.807 133.833 902.421 133.76 901.994 133.76Z" fill="white" fill-opacity="0.5"/>
<path d="M1023.76 31.04H1028.5C1029.7 31.04 1030.64 31.3667 1031.32 32.02C1032 32.6733 1032.34 33.5467 1032.34 34.64C1032.34 35.48 1032.13 36.14 1031.72 36.62C1031.32 37.1 1030.8 37.44 1030.16 37.64V37.7C1030.95 37.8867 1031.59 38.24 1032.1 38.76C1032.61 39.2667 1032.86 40.0067 1032.86 40.98C1032.86 41.54 1032.77 42.0667 1032.58 42.56C1032.39 43.0533 1032.13 43.48 1031.78 43.84C1031.45 44.2 1031.05 44.4867 1030.58 44.7C1030.13 44.9 1029.63 45 1029.1 45H1023.76V31.04ZM1028.6 43.54C1029.37 43.54 1029.98 43.3667 1030.42 43.02C1030.86 42.6733 1031.08 42.14 1031.08 41.42V40.6C1031.08 39.8933 1030.86 39.3667 1030.42 39.02C1029.98 38.66 1029.37 38.48 1028.6 38.48H1025.44V43.54H1028.6ZM1028.32 37.1C1029.03 37.1 1029.58 36.9467 1029.98 36.64C1030.38 36.32 1030.58 35.84 1030.58 35.2V34.42C1030.58 33.78 1030.38 33.3 1029.98 32.98C1029.58 32.66 1029.03 32.5 1028.32 32.5H1025.44V37.1H1028.32ZM1035.07 34.68H1036.67V38.42H1038.41C1039.45 38.42 1040.28 38.7133 1040.89 39.3C1041.51 39.8867 1041.81 40.6933 1041.81 41.72C1041.81 42.76 1041.51 43.5667 1040.91 44.14C1040.31 44.7133 1039.49 45 1038.43 45H1035.07V34.68ZM1038.19 43.64C1038.79 43.64 1039.26 43.52 1039.59 43.28C1039.94 43.04 1040.11 42.6533 1040.11 42.12V41.28C1040.11 40.7467 1039.94 40.3667 1039.59 40.14C1039.26 39.9 1038.79 39.78 1038.19 39.78H1036.67V43.64H1038.19ZM1043.31 34.68H1044.91V45H1043.31V34.68ZM1046.42 43.64H1047.58C1048.01 42.96 1048.34 42.16 1048.58 41.24C1048.84 40.3067 1048.96 39.2133 1048.96 37.96V34.68H1055.62V43.64H1057.32V47.8H1055.86V45H1047.88V47.8H1046.42V43.64ZM1054.02 43.64V36.04H1050.52V38.04C1050.52 39.28 1050.42 40.3467 1050.22 41.24C1050.02 42.12 1049.72 42.92 1049.32 43.64H1054.02ZM1067.88 45C1067.25 45 1066.8 44.84 1066.54 44.52C1066.27 44.2 1066.1 43.8 1066.04 43.32H1065.94C1065.71 43.92 1065.34 44.3933 1064.84 44.74C1064.34 45.0733 1063.68 45.24 1062.84 45.24C1061.76 45.24 1060.9 44.96 1060.26 44.4C1059.62 43.84 1059.3 43.0733 1059.3 42.1C1059.3 41.14 1059.64 40.4 1060.34 39.88C1061.04 39.36 1062.18 39.1 1063.74 39.1H1065.94V38.08C1065.94 37.32 1065.72 36.7533 1065.3 36.38C1064.87 35.9933 1064.26 35.8 1063.48 35.8C1062.78 35.8 1062.22 35.94 1061.78 36.22C1061.34 36.4867 1060.98 36.8533 1060.72 37.32L1059.64 36.52C1059.77 36.2533 1059.95 35.9933 1060.18 35.74C1060.4 35.4867 1060.68 35.2667 1061.02 35.08C1061.35 34.88 1061.73 34.7267 1062.16 34.62C1062.58 34.5 1063.06 34.44 1063.58 34.44C1064.79 34.44 1065.75 34.7467 1066.46 35.36C1067.18 35.9733 1067.54 36.8267 1067.54 37.92V43.6H1068.98V45H1067.88ZM1063.12 43.9C1063.53 43.9 1063.9 43.8533 1064.24 43.76C1064.58 43.6533 1064.88 43.52 1065.14 43.36C1065.39 43.1867 1065.58 42.9867 1065.72 42.76C1065.86 42.52 1065.94 42.2667 1065.94 42V40.3H1063.74C1062.78 40.3 1062.08 40.4333 1061.64 40.7C1061.2 40.9667 1060.98 41.3533 1060.98 41.86V42.28C1060.98 42.8133 1061.16 43.22 1061.54 43.5C1061.92 43.7667 1062.45 43.9 1063.12 43.9ZM1078.17 40.26H1078.07C1077.7 40.6733 1077.27 40.9867 1076.79 41.2C1076.32 41.4 1075.72 41.5 1074.99 41.5C1073.87 41.5 1073.02 41.24 1072.43 40.72C1071.86 40.1867 1071.57 39.3867 1071.57 38.32V34.68H1073.17V38.18C1073.17 38.82 1073.35 39.2933 1073.71 39.6C1074.07 39.9067 1074.66 40.06 1075.47 40.06C1076.27 40.06 1076.92 39.96 1077.41 39.76C1077.92 39.5467 1078.17 39.2267 1078.17 38.8V34.68H1079.77V45H1078.17V40.26ZM1091.86 45C1091.23 45 1090.79 44.84 1090.52 44.52C1090.25 44.2 1090.09 43.8 1090.02 43.32H1089.92C1089.69 43.92 1089.33 44.3933 1088.82 44.74C1088.33 45.0733 1087.66 45.24 1086.82 45.24C1085.74 45.24 1084.88 44.96 1084.24 44.4C1083.6 43.84 1083.28 43.0733 1083.28 42.1C1083.28 41.14 1083.63 40.4 1084.32 39.88C1085.03 39.36 1086.16 39.1 1087.72 39.1H1089.92V38.08C1089.92 37.32 1089.71 36.7533 1089.28 36.38C1088.85 35.9933 1088.25 35.8 1087.46 35.8C1086.77 35.8 1086.2 35.94 1085.76 36.22C1085.32 36.4867 1084.97 36.8533 1084.7 37.32L1083.62 36.52C1083.75 36.2533 1083.93 35.9933 1084.16 35.74C1084.39 35.4867 1084.67 35.2667 1085 35.08C1085.33 34.88 1085.71 34.7267 1086.14 34.62C1086.57 34.5 1087.04 34.44 1087.56 34.44C1088.77 34.44 1089.73 34.7467 1090.44 35.36C1091.16 35.9733 1091.52 36.8267 1091.52 37.92V43.6H1092.96V45H1091.86ZM1087.1 43.9C1087.51 43.9 1087.89 43.8533 1088.22 43.76C1088.57 43.6533 1088.87 43.52 1089.12 43.36C1089.37 43.1867 1089.57 42.9867 1089.7 42.76C1089.85 42.52 1089.92 42.2667 1089.92 42V40.3H1087.72C1086.76 40.3 1086.06 40.4333 1085.62 40.7C1085.18 40.9667 1084.96 41.3533 1084.96 41.86V42.28C1084.96 42.8133 1085.15 43.22 1085.52 43.5C1085.91 43.7667 1086.43 43.9 1087.1 43.9ZM1108.65 34.68H1116.05V36.04H1110.25V45H1108.65V34.68ZM1123.94 45.24C1123.22 45.24 1122.56 45.1133 1121.98 44.86C1121.4 44.6067 1120.91 44.2467 1120.5 43.78C1120.1 43.3 1119.79 42.7333 1119.58 42.08C1119.36 41.4133 1119.26 40.6667 1119.26 39.84C1119.26 39.0267 1119.36 38.2867 1119.58 37.62C1119.79 36.9533 1120.1 36.3867 1120.5 35.92C1120.91 35.44 1121.4 35.0733 1121.98 34.82C1122.56 34.5667 1123.22 34.44 1123.94 34.44C1124.66 34.44 1125.3 34.5667 1125.88 34.82C1126.46 35.0733 1126.96 35.44 1127.36 35.92C1127.77 36.3867 1128.08 36.9533 1128.3 37.62C1128.51 38.2867 1128.62 39.0267 1128.62 39.84C1128.62 40.6667 1128.51 41.4133 1128.3 42.08C1128.08 42.7333 1127.77 43.3 1127.36 43.78C1126.96 44.2467 1126.46 44.6067 1125.88 44.86C1125.3 45.1133 1124.66 45.24 1123.94 45.24ZM1123.94 43.86C1124.83 43.86 1125.55 43.5933 1126.1 43.06C1126.64 42.5267 1126.92 41.7 1126.92 40.58V39.1C1126.92 37.98 1126.64 37.1533 1126.1 36.62C1125.55 36.0867 1124.83 35.82 1123.94 35.82C1123.04 35.82 1122.32 36.0867 1121.78 36.62C1121.23 37.1533 1120.96 37.98 1120.96 39.1V40.58C1120.96 41.7 1121.23 42.5267 1121.78 43.06C1122.32 43.5933 1123.04 43.86 1123.94 43.86ZM1135.13 36.04H1131.33V34.68H1140.53V36.04H1136.73V45H1135.13V36.04ZM1147.92 45.24C1147.2 45.24 1146.55 45.1133 1145.96 44.86C1145.39 44.6067 1144.9 44.2467 1144.48 43.78C1144.08 43.3 1143.78 42.7333 1143.56 42.08C1143.35 41.4133 1143.24 40.6667 1143.24 39.84C1143.24 39.0267 1143.35 38.2867 1143.56 37.62C1143.78 36.9533 1144.08 36.3867 1144.48 35.92C1144.9 35.44 1145.39 35.0733 1145.96 34.82C1146.55 34.5667 1147.2 34.44 1147.92 34.44C1148.64 34.44 1149.29 34.5667 1149.86 34.82C1150.45 35.0733 1150.94 35.44 1151.34 35.92C1151.76 36.3867 1152.07 36.9533 1152.28 37.62C1152.5 38.2867 1152.6 39.0267 1152.6 39.84C1152.6 40.6667 1152.5 41.4133 1152.28 42.08C1152.07 42.7333 1151.76 43.3 1151.34 43.78C1150.94 44.2467 1150.45 44.6067 1149.86 44.86C1149.29 45.1133 1148.64 45.24 1147.92 45.24ZM1147.92 43.86C1148.82 43.86 1149.54 43.5933 1150.08 43.06C1150.63 42.5267 1150.9 41.7 1150.9 40.58V39.1C1150.9 37.98 1150.63 37.1533 1150.08 36.62C1149.54 36.0867 1148.82 35.82 1147.92 35.82C1147.03 35.82 1146.31 36.0867 1145.76 36.62C1145.22 37.1533 1144.94 37.98 1144.94 39.1V40.58C1144.94 41.7 1145.22 42.5267 1145.76 43.06C1146.31 43.5933 1147.03 43.86 1147.92 43.86ZM1156.05 34.68H1161.31C1162.15 34.68 1162.81 34.92 1163.29 35.4C1163.77 35.8667 1164.01 36.5 1164.01 37.3C1164.01 38.5933 1163.34 39.32 1161.99 39.48V39.56C1162.79 39.6267 1163.39 39.88 1163.77 40.32C1164.17 40.7467 1164.37 41.28 1164.37 41.92C1164.37 42.3333 1164.31 42.7267 1164.17 43.1C1164.04 43.4733 1163.85 43.8 1163.59 44.08C1163.34 44.36 1163.03 44.5867 1162.65 44.76C1162.28 44.92 1161.85 45 1161.37 45H1156.05V34.68ZM1160.97 43.72C1161.52 43.72 1161.94 43.5867 1162.23 43.32C1162.53 43.0533 1162.67 42.6867 1162.67 42.22V41.76C1162.67 41.2933 1162.53 40.9333 1162.23 40.68C1161.95 40.4133 1161.57 40.28 1161.09 40.28H1157.65V43.72H1160.97ZM1160.89 39.02C1161.33 39.02 1161.68 38.9067 1161.93 38.68C1162.19 38.4533 1162.31 38.1333 1162.31 37.72V37.28C1162.31 36.8667 1162.19 36.5467 1161.93 36.32C1161.68 36.08 1161.33 35.96 1160.89 35.96H1157.65V39.02H1160.89ZM1171.91 45.24C1171.19 45.24 1170.53 45.1133 1169.95 44.86C1169.37 44.6067 1168.88 44.2467 1168.47 43.78C1168.07 43.3 1167.76 42.7333 1167.55 42.08C1167.33 41.4133 1167.23 40.6667 1167.23 39.84C1167.23 39.0267 1167.33 38.2867 1167.55 37.62C1167.76 36.9533 1168.07 36.3867 1168.47 35.92C1168.88 35.44 1169.37 35.0733 1169.95 34.82C1170.53 34.5667 1171.19 34.44 1171.91 34.44C1172.63 34.44 1173.27 34.5667 1173.85 34.82C1174.43 35.0733 1174.93 35.44 1175.33 35.92C1175.74 36.3867 1176.05 36.9533 1176.27 37.62C1176.48 38.2867 1176.59 39.0267 1176.59 39.84C1176.59 40.6667 1176.48 41.4133 1176.27 42.08C1176.05 42.7333 1175.74 43.3 1175.33 43.78C1174.93 44.2467 1174.43 44.6067 1173.85 44.86C1173.27 45.1133 1172.63 45.24 1171.91 45.24ZM1171.91 43.86C1172.8 43.86 1173.52 43.5933 1174.07 43.06C1174.61 42.5267 1174.89 41.7 1174.89 40.58V39.1C1174.89 37.98 1174.61 37.1533 1174.07 36.62C1173.52 36.0867 1172.8 35.82 1171.91 35.82C1171.01 35.82 1170.29 36.0867 1169.75 36.62C1169.2 37.1533 1168.93 37.98 1168.93 39.1V40.58C1168.93 41.7 1169.2 42.5267 1169.75 43.06C1170.29 43.5933 1171.01 43.86 1171.91 43.86ZM1180.6 34.68H1188V36.04H1182.2V45H1180.6V34.68ZM1195.89 45.24C1195.17 45.24 1194.52 45.1133 1193.93 44.86C1193.36 44.6067 1192.86 44.2467 1192.45 43.78C1192.05 43.3 1191.74 42.7333 1191.53 42.08C1191.32 41.4133 1191.21 40.6667 1191.21 39.84C1191.21 39.0267 1191.32 38.2867 1191.53 37.62C1191.74 36.9533 1192.05 36.3867 1192.45 35.92C1192.86 35.44 1193.36 35.0733 1193.93 34.82C1194.52 34.5667 1195.17 34.44 1195.89 34.44C1196.61 34.44 1197.26 34.5667 1197.83 34.82C1198.42 35.0733 1198.91 35.44 1199.31 35.92C1199.72 36.3867 1200.04 36.9533 1200.25 37.62C1200.46 38.2867 1200.57 39.0267 1200.57 39.84C1200.57 40.6667 1200.46 41.4133 1200.25 42.08C1200.04 42.7333 1199.72 43.3 1199.31 43.78C1198.91 44.2467 1198.42 44.6067 1197.83 44.86C1197.26 45.1133 1196.61 45.24 1195.89 45.24ZM1195.89 43.86C1196.78 43.86 1197.5 43.5933 1198.05 43.06C1198.6 42.5267 1198.87 41.7 1198.87 40.58V39.1C1198.87 37.98 1198.6 37.1533 1198.05 36.62C1197.5 36.0867 1196.78 35.82 1195.89 35.82C1195 35.82 1194.28 36.0867 1193.73 36.62C1193.18 37.1533 1192.91 37.98 1192.91 39.1V40.58C1192.91 41.7 1193.18 42.5267 1193.73 43.06C1194.28 43.5933 1195 43.86 1195.89 43.86ZM1215.78 34.68H1217.38V36.36H1217.46C1218.12 35.08 1219.18 34.44 1220.64 34.44C1221.9 34.44 1222.89 34.9133 1223.6 35.86C1224.32 36.8067 1224.68 38.1333 1224.68 39.84C1224.68 41.5467 1224.32 42.8733 1223.6 43.82C1222.89 44.7667 1221.9 45.24 1220.64 45.24C1219.18 45.24 1218.12 44.6 1217.46 43.32H1217.38V49H1215.78V34.68ZM1220.02 43.82C1220.95 43.82 1221.67 43.54 1222.18 42.98C1222.7 42.4067 1222.96 41.6533 1222.96 40.72V38.96C1222.96 38.0267 1222.7 37.28 1222.18 36.72C1221.67 36.1467 1220.95 35.86 1220.02 35.86C1219.66 35.86 1219.32 35.9067 1219 36C1218.68 36.0933 1218.4 36.2333 1218.16 36.42C1217.92 36.5933 1217.72 36.8133 1217.58 37.08C1217.44 37.3333 1217.38 37.6333 1217.38 37.98V41.7C1217.38 42.0467 1217.44 42.3533 1217.58 42.62C1217.72 42.8733 1217.92 43.0933 1218.16 43.28C1218.4 43.4533 1218.68 43.5867 1219 43.68C1219.32 43.7733 1219.66 43.82 1220.02 43.82ZM1232.05 45.24C1231.3 45.24 1230.63 45.1133 1230.03 44.86C1229.44 44.6067 1228.93 44.2467 1228.51 43.78C1228.09 43.3 1227.77 42.7333 1227.55 42.08C1227.32 41.4133 1227.21 40.6733 1227.21 39.86C1227.21 39.0333 1227.32 38.2867 1227.55 37.62C1227.79 36.9533 1228.11 36.3867 1228.53 35.92C1228.94 35.44 1229.43 35.0733 1230.01 34.82C1230.59 34.5667 1231.24 34.44 1231.95 34.44C1232.64 34.44 1233.27 34.5667 1233.83 34.82C1234.4 35.0733 1234.89 35.4267 1235.29 35.88C1235.69 36.32 1235.99 36.8467 1236.21 37.46C1236.42 38.0733 1236.53 38.7467 1236.53 39.48V40.24H1228.89V40.72C1228.89 41.1733 1228.96 41.5933 1229.11 41.98C1229.25 42.3667 1229.46 42.7 1229.73 42.98C1230.01 43.26 1230.34 43.48 1230.73 43.64C1231.13 43.7867 1231.57 43.86 1232.05 43.86C1232.74 43.86 1233.34 43.7 1233.85 43.38C1234.35 43.06 1234.74 42.62 1235.01 42.06L1236.19 42.86C1235.88 43.5533 1235.37 44.1267 1234.65 44.58C1233.94 45.02 1233.07 45.24 1232.05 45.24ZM1231.95 35.76C1231.51 35.76 1231.1 35.84 1230.73 36C1230.35 36.16 1230.03 36.38 1229.75 36.66C1229.48 36.94 1229.27 37.2733 1229.11 37.66C1228.96 38.0333 1228.89 38.4467 1228.89 38.9V39.04H1234.81V38.82C1234.81 38.3667 1234.73 37.9533 1234.59 37.58C1234.45 37.2067 1234.26 36.8867 1234.01 36.62C1233.77 36.34 1233.47 36.1267 1233.11 35.98C1232.76 35.8333 1232.37 35.76 1231.95 35.76ZM1243.44 45.24C1242.37 45.24 1241.49 45.0667 1240.78 44.72C1240.09 44.3733 1239.52 43.88 1239.08 43.24L1240.26 42.28C1240.58 42.7867 1241 43.18 1241.52 43.46C1242.04 43.7267 1242.68 43.86 1243.44 43.86C1244.4 43.86 1245.09 43.7067 1245.52 43.4C1245.95 43.0933 1246.16 42.7 1246.16 42.22V41.94C1246.16 41.42 1245.99 41.0267 1245.64 40.76C1245.31 40.48 1244.82 40.34 1244.18 40.34H1241.4V39H1243.98C1245.29 39 1245.94 38.5133 1245.94 37.54V37.3C1245.94 36.86 1245.75 36.5067 1245.38 36.24C1245.02 35.96 1244.39 35.82 1243.48 35.82C1242.68 35.82 1242.03 35.9533 1241.54 36.22C1241.06 36.4867 1240.67 36.86 1240.36 37.34L1239.24 36.58C1239.71 35.9 1240.27 35.3733 1240.94 35C1241.61 34.6267 1242.48 34.44 1243.56 34.44C1244.93 34.44 1245.95 34.6867 1246.62 35.18C1247.3 35.6733 1247.64 36.3533 1247.64 37.22C1247.64 37.86 1247.47 38.3667 1247.14 38.74C1246.81 39.1133 1246.34 39.3733 1245.74 39.52V39.6C1246.43 39.7067 1246.96 39.9733 1247.32 40.4C1247.68 40.8133 1247.86 41.3467 1247.86 42C1247.86 43 1247.47 43.7933 1246.7 44.38C1245.94 44.9533 1244.85 45.24 1243.44 45.24ZM1259.19 34.68H1260.79L1255.67 47.26C1255.55 47.5533 1255.42 47.8067 1255.27 48.02C1255.12 48.2467 1254.95 48.4267 1254.75 48.56C1254.55 48.7067 1254.31 48.8133 1254.03 48.88C1253.75 48.96 1253.42 49 1253.03 49H1251.51V47.64H1253.91L1255.07 44.8L1250.91 34.68H1252.55L1254.29 39L1255.83 42.92H1255.91L1257.45 39L1259.19 34.68ZM1262.36 43.64H1263.64C1263.84 43.3867 1264.02 43.0867 1264.16 42.74C1264.32 42.3933 1264.45 41.98 1264.54 41.5C1264.65 41.02 1264.73 40.4667 1264.78 39.84C1264.84 39.2 1264.86 38.46 1264.86 37.62V34.68H1271.72V45H1270.12V36.04H1266.42V37.66C1266.42 39.5267 1266.28 40.9933 1266 42.06C1265.74 43.1133 1265.38 43.8667 1264.92 44.32C1264.67 44.5733 1264.39 44.7533 1264.08 44.86C1263.78 44.9533 1263.41 45 1262.98 45H1262.36V43.64ZM1276.06 34.68H1277.66V38.42H1280.86C1281.9 38.42 1282.72 38.7133 1283.34 39.3C1283.95 39.8867 1284.26 40.6933 1284.26 41.72C1284.26 42.76 1283.96 43.5667 1283.36 44.14C1282.76 44.7133 1281.93 45 1280.88 45H1276.06V34.68ZM1280.64 43.64C1281.24 43.64 1281.7 43.52 1282.04 43.28C1282.38 43.04 1282.56 42.6533 1282.56 42.12V41.28C1282.56 40.7467 1282.38 40.3667 1282.04 40.14C1281.7 39.9 1281.24 39.78 1280.64 39.78H1277.66V43.64H1280.64ZM1291.03 36.04H1287.23V34.68H1296.43V36.04H1292.63V45H1291.03V36.04ZM1307.72 45C1307.09 45 1306.65 44.84 1306.38 44.52C1306.11 44.2 1305.95 43.8 1305.88 43.32H1305.78C1305.55 43.92 1305.19 44.3933 1304.68 44.74C1304.19 45.0733 1303.52 45.24 1302.68 45.24C1301.6 45.24 1300.74 44.96 1300.1 44.4C1299.46 43.84 1299.14 43.0733 1299.14 42.1C1299.14 41.14 1299.49 40.4 1300.18 39.88C1300.89 39.36 1302.02 39.1 1303.58 39.1H1305.78V38.08C1305.78 37.32 1305.57 36.7533 1305.14 36.38C1304.71 35.9933 1304.11 35.8 1303.32 35.8C1302.63 35.8 1302.06 35.94 1301.62 36.22C1301.18 36.4867 1300.83 36.8533 1300.56 37.32L1299.48 36.52C1299.61 36.2533 1299.79 35.9933 1300.02 35.74C1300.25 35.4867 1300.53 35.2667 1300.86 35.08C1301.19 34.88 1301.57 34.7267 1302 34.62C1302.43 34.5 1302.9 34.44 1303.42 34.44C1304.63 34.44 1305.59 34.7467 1306.3 35.36C1307.02 35.9733 1307.38 36.8267 1307.38 37.92V43.6H1308.82V45H1307.72ZM1302.96 43.9C1303.37 43.9 1303.75 43.8533 1304.08 43.76C1304.43 43.6533 1304.73 43.52 1304.98 43.36C1305.23 43.1867 1305.43 42.9867 1305.56 42.76C1305.71 42.52 1305.78 42.2667 1305.78 42V40.3H1303.58C1302.62 40.3 1301.92 40.4333 1301.48 40.7C1301.04 40.9667 1300.82 41.3533 1300.82 41.86V42.28C1300.82 42.8133 1301.01 43.22 1301.38 43.5C1301.77 43.7667 1302.29 43.9 1302.96 43.9ZM1315.01 36.04H1311.21V34.68H1320.41V36.04H1316.61V45H1315.01V36.04ZM1331.7 45C1331.08 45 1330.63 44.84 1330.36 44.52C1330.1 44.2 1329.93 43.8 1329.86 43.32H1329.76C1329.54 43.92 1329.17 44.3933 1328.66 44.74C1328.17 45.0733 1327.5 45.24 1326.66 45.24C1325.58 45.24 1324.72 44.96 1324.08 44.4C1323.44 43.84 1323.12 43.0733 1323.12 42.1C1323.12 41.14 1323.47 40.4 1324.16 39.88C1324.87 39.36 1326 39.1 1327.56 39.1H1329.76V38.08C1329.76 37.32 1329.55 36.7533 1329.12 36.38C1328.7 35.9933 1328.09 35.8 1327.3 35.8C1326.61 35.8 1326.04 35.94 1325.6 36.22C1325.16 36.4867 1324.81 36.8533 1324.54 37.32L1323.46 36.52C1323.6 36.2533 1323.78 35.9933 1324 35.74C1324.23 35.4867 1324.51 35.2667 1324.84 35.08C1325.18 34.88 1325.56 34.7267 1325.98 34.62C1326.41 34.5 1326.88 34.44 1327.4 34.44C1328.62 34.44 1329.58 34.7467 1330.28 35.36C1331 35.9733 1331.36 36.8267 1331.36 37.92V43.6H1332.8V45H1331.7ZM1326.94 43.9C1327.36 43.9 1327.73 43.8533 1328.06 43.76C1328.41 43.6533 1328.71 43.52 1328.96 43.36C1329.22 43.1867 1329.41 42.9867 1329.54 42.76C1329.69 42.52 1329.76 42.2667 1329.76 42V40.3H1327.56C1326.6 40.3 1325.9 40.4333 1325.46 40.7C1325.02 40.9667 1324.8 41.3533 1324.8 41.86V42.28C1324.8 42.8133 1324.99 43.22 1325.36 43.5C1325.75 43.7667 1326.28 43.9 1326.94 43.9Z" fill="white" fill-opacity="0.5"/>
<path d="M414.5 155L414.897 154.082L414.5 155ZM460.318 195.483C460.861 195.584 461.383 195.225 461.483 194.682L463.118 185.831C463.218 185.288 462.859 184.767 462.316 184.666C461.773 184.566 461.252 184.925 461.151 185.468L459.698 193.335L451.831 191.882C451.288 191.782 450.767 192.141 450.666 192.684C450.566 193.227 450.925 193.748 451.468 193.849L460.318 195.483ZM254.946 272.326C268.1 234.103 299.663 201.386 332.174 180.023C348.421 169.348 364.863 161.536 379.297 157.295C393.781 153.041 406.057 152.435 414.103 155.918L414.897 154.082C406.193 150.315 393.344 151.084 378.734 155.377C364.075 159.683 347.454 167.59 331.076 178.352C298.337 199.864 266.4 232.897 253.054 271.675L254.946 272.326ZM414.103 155.918C427.331 161.643 438.724 171.414 446.831 179.795C450.879 183.98 454.095 187.804 456.298 190.581C457.399 191.969 458.246 193.094 458.817 193.871C459.102 194.259 459.318 194.56 459.463 194.763C459.535 194.864 459.589 194.941 459.624 194.993C459.642 195.018 459.656 195.037 459.664 195.05C459.669 195.056 459.672 195.06 459.674 195.063C459.675 195.065 459.675 195.066 459.676 195.066C459.676 195.067 459.676 195.067 459.676 195.067C459.676 195.067 459.676 195.067 460.5 194.5C461.324 193.933 461.324 193.933 461.323 193.932C461.323 193.932 461.323 193.932 461.322 193.931C461.322 193.93 461.321 193.928 461.319 193.927C461.317 193.923 461.313 193.917 461.308 193.91C461.298 193.895 461.283 193.874 461.264 193.847C461.225 193.792 461.168 193.71 461.093 193.605C460.943 193.393 460.72 193.084 460.428 192.686C459.844 191.892 458.982 190.747 457.865 189.338C455.63 186.521 452.371 182.645 448.269 178.405C440.076 169.936 428.469 159.957 414.897 154.082L414.103 155.918Z" fill="#7033F5"/>
<path d="M447.648 243.177C470.56 245.188 660.034 253.786 621.795 243.403C591.204 235.097 492.28 247.429 446.643 254.633" stroke="#7033F5"/>
<path d="M1012.5 13.5C1012.5 11.5 1006.17 7.33333 1003 5.5M1019.5 11V0M1025.5 11L1035 2" stroke="#7033F5"/>
<path d="M349 406.24C348.147 406.24 347.413 406.08 346.8 405.76C346.187 405.427 345.68 404.953 345.28 404.34C344.88 403.727 344.587 402.973 344.4 402.08C344.213 401.187 344.12 400.167 344.12 399.02C344.12 397.887 344.213 396.873 344.4 395.98C344.587 395.073 344.88 394.313 345.28 393.7C345.68 393.087 346.187 392.62 346.8 392.3C347.413 391.967 348.147 391.8 349 391.8C349.853 391.8 350.587 391.967 351.2 392.3C351.813 392.62 352.32 393.087 352.72 393.7C353.12 394.313 353.413 395.073 353.6 395.98C353.787 396.873 353.88 397.887 353.88 399.02C353.88 400.167 353.787 401.187 353.6 402.08C353.413 402.973 353.12 403.727 352.72 404.34C352.32 404.953 351.813 405.427 351.2 405.76C350.587 406.08 349.853 406.24 349 406.24ZM349 404.78C349.56 404.78 350.04 404.673 350.44 404.46C350.84 404.233 351.16 403.92 351.4 403.52C351.653 403.12 351.84 402.64 351.96 402.08C352.08 401.507 352.14 400.867 352.14 400.16V397.88C352.14 397.187 352.08 396.553 351.96 395.98C351.84 395.407 351.653 394.92 351.4 394.52C351.16 394.12 350.84 393.813 350.44 393.6C350.04 393.373 349.56 393.26 349 393.26C348.44 393.26 347.96 393.373 347.56 393.6C347.16 393.813 346.833 394.12 346.58 394.52C346.34 394.92 346.16 395.407 346.04 395.98C345.92 396.553 345.86 397.187 345.86 397.88V400.16C345.86 400.867 345.92 401.507 346.04 402.08C346.16 402.64 346.34 403.12 346.58 403.52C346.833 403.92 347.16 404.233 347.56 404.46C347.96 404.673 348.44 404.78 349 404.78ZM349 400.2C348.533 400.2 348.207 400.107 348.02 399.92C347.847 399.733 347.76 399.507 347.76 399.24V398.8C347.76 398.533 347.847 398.307 348.02 398.12C348.207 397.933 348.533 397.84 349 397.84C349.467 397.84 349.787 397.933 349.96 398.12C350.147 398.307 350.24 398.533 350.24 398.8V399.24C350.24 399.507 350.147 399.733 349.96 399.92C349.787 400.107 349.467 400.2 349 400.2ZM356.692 406V404.54H360.692V393.28H360.552L357.032 396.56L356.052 395.5L359.752 392.04H362.372V404.54H366.052V406H356.692Z" fill="white" fill-opacity="0.5"/>
<path d="M690 299.24C689.147 299.24 688.413 299.08 687.8 298.76C687.187 298.427 686.68 297.953 686.28 297.34C685.88 296.727 685.587 295.973 685.4 295.08C685.213 294.187 685.12 293.167 685.12 292.02C685.12 290.887 685.213 289.873 685.4 288.98C685.587 288.073 685.88 287.313 686.28 286.7C686.68 286.087 687.187 285.62 687.8 285.3C688.413 284.967 689.147 284.8 690 284.8C690.853 284.8 691.587 284.967 692.2 285.3C692.813 285.62 693.32 286.087 693.72 286.7C694.12 287.313 694.413 288.073 694.6 288.98C694.787 289.873 694.88 290.887 694.88 292.02C694.88 293.167 694.787 294.187 694.6 295.08C694.413 295.973 694.12 296.727 693.72 297.34C693.32 297.953 692.813 298.427 692.2 298.76C691.587 299.08 690.853 299.24 690 299.24ZM690 297.78C690.56 297.78 691.04 297.673 691.44 297.46C691.84 297.233 692.16 296.92 692.4 296.52C692.653 296.12 692.84 295.64 692.96 295.08C693.08 294.507 693.14 293.867 693.14 293.16V290.88C693.14 290.187 693.08 289.553 692.96 288.98C692.84 288.407 692.653 287.92 692.4 287.52C692.16 287.12 691.84 286.813 691.44 286.6C691.04 286.373 690.56 286.26 690 286.26C689.44 286.26 688.96 286.373 688.56 286.6C688.16 286.813 687.833 287.12 687.58 287.52C687.34 287.92 687.16 288.407 687.04 288.98C686.92 289.553 686.86 290.187 686.86 290.88V293.16C686.86 293.867 686.92 294.507 687.04 295.08C687.16 295.64 687.34 296.12 687.58 296.52C687.833 296.92 688.16 297.233 688.56 297.46C688.96 297.673 689.44 297.78 690 297.78ZM690 293.2C689.533 293.2 689.207 293.107 689.02 292.92C688.847 292.733 688.76 292.507 688.76 292.24V291.8C688.76 291.533 688.847 291.307 689.02 291.12C689.207 290.933 689.533 290.84 690 290.84C690.467 290.84 690.787 290.933 690.96 291.12C691.147 291.307 691.24 291.533 691.24 291.8V292.24C691.24 292.507 691.147 292.733 690.96 292.92C690.787 293.107 690.467 293.2 690 293.2ZM706.732 299H697.412V297.28L702.072 293.08C702.752 292.467 703.312 291.84 703.752 291.2C704.192 290.547 704.412 289.86 704.412 289.14V288.9C704.412 288.06 704.192 287.413 703.752 286.96C703.312 286.493 702.659 286.26 701.792 286.26C700.939 286.26 700.279 286.48 699.812 286.92C699.359 287.347 699.019 287.92 698.792 288.64L697.292 288.08C697.426 287.667 697.606 287.267 697.832 286.88C698.072 286.48 698.372 286.127 698.732 285.82C699.092 285.513 699.526 285.267 700.032 285.08C700.552 284.893 701.152 284.8 701.832 284.8C702.526 284.8 703.139 284.9 703.672 285.1C704.219 285.3 704.672 285.58 705.032 285.94C705.406 286.3 705.686 286.727 705.872 287.22C706.072 287.713 706.172 288.253 706.172 288.84C706.172 289.373 706.092 289.873 705.932 290.34C705.786 290.807 705.572 291.253 705.292 291.68C705.026 292.107 704.699 292.527 704.312 292.94C703.939 293.34 703.519 293.74 703.052 294.14L699.152 297.54H706.732V299Z" fill="white" fill-opacity="0.5"/>
<path d="M1014 203.24C1013.15 203.24 1012.41 203.08 1011.8 202.76C1011.19 202.427 1010.68 201.953 1010.28 201.34C1009.88 200.727 1009.59 199.973 1009.4 199.08C1009.21 198.187 1009.12 197.167 1009.12 196.02C1009.12 194.887 1009.21 193.873 1009.4 192.98C1009.59 192.073 1009.88 191.313 1010.28 190.7C1010.68 190.087 1011.19 189.62 1011.8 189.3C1012.41 188.967 1013.15 188.8 1014 188.8C1014.85 188.8 1015.59 188.967 1016.2 189.3C1016.81 189.62 1017.32 190.087 1017.72 190.7C1018.12 191.313 1018.41 192.073 1018.6 192.98C1018.79 193.873 1018.88 194.887 1018.88 196.02C1018.88 197.167 1018.79 198.187 1018.6 199.08C1018.41 199.973 1018.12 200.727 1017.72 201.34C1017.32 201.953 1016.81 202.427 1016.2 202.76C1015.59 203.08 1014.85 203.24 1014 203.24ZM1014 201.78C1014.56 201.78 1015.04 201.673 1015.44 201.46C1015.84 201.233 1016.16 200.92 1016.4 200.52C1016.65 200.12 1016.84 199.64 1016.96 199.08C1017.08 198.507 1017.14 197.867 1017.14 197.16V194.88C1017.14 194.187 1017.08 193.553 1016.96 192.98C1016.84 192.407 1016.65 191.92 1016.4 191.52C1016.16 191.12 1015.84 190.813 1015.44 190.6C1015.04 190.373 1014.56 190.26 1014 190.26C1013.44 190.26 1012.96 190.373 1012.56 190.6C1012.16 190.813 1011.83 191.12 1011.58 191.52C1011.34 191.92 1011.16 192.407 1011.04 192.98C1010.92 193.553 1010.86 194.187 1010.86 194.88V197.16C1010.86 197.867 1010.92 198.507 1011.04 199.08C1011.16 199.64 1011.34 200.12 1011.58 200.52C1011.83 200.92 1012.16 201.233 1012.56 201.46C1012.96 201.673 1013.44 201.78 1014 201.78ZM1014 197.2C1013.53 197.2 1013.21 197.107 1013.02 196.92C1012.85 196.733 1012.76 196.507 1012.76 196.24V195.8C1012.76 195.533 1012.85 195.307 1013.02 195.12C1013.21 194.933 1013.53 194.84 1014 194.84C1014.47 194.84 1014.79 194.933 1014.96 195.12C1015.15 195.307 1015.24 195.533 1015.24 195.8V196.24C1015.24 196.507 1015.15 196.733 1014.96 196.92C1014.79 197.107 1014.47 197.2 1014 197.2ZM1025.39 194.96C1026.37 194.96 1027.09 194.747 1027.57 194.32C1028.07 193.88 1028.31 193.32 1028.31 192.64V192.5C1028.31 191.753 1028.07 191.193 1027.59 190.82C1027.13 190.447 1026.51 190.26 1025.75 190.26C1025.01 190.26 1024.4 190.427 1023.93 190.76C1023.48 191.08 1023.11 191.507 1022.81 192.04L1021.55 191.08C1021.73 190.8 1021.94 190.527 1022.19 190.26C1022.45 189.98 1022.74 189.733 1023.07 189.52C1023.42 189.307 1023.81 189.133 1024.25 189C1024.71 188.867 1025.22 188.8 1025.79 188.8C1026.39 188.8 1026.95 188.88 1027.47 189.04C1027.99 189.187 1028.45 189.413 1028.83 189.72C1029.22 190.013 1029.52 190.38 1029.73 190.82C1029.96 191.26 1030.07 191.76 1030.07 192.32C1030.07 192.773 1030 193.18 1029.85 193.54C1029.72 193.9 1029.53 194.213 1029.27 194.48C1029.03 194.747 1028.75 194.973 1028.41 195.16C1028.08 195.347 1027.73 195.487 1027.35 195.58V195.66C1027.74 195.74 1028.11 195.873 1028.47 196.06C1028.83 196.233 1029.15 196.467 1029.43 196.76C1029.71 197.04 1029.93 197.387 1030.09 197.8C1030.27 198.2 1030.35 198.66 1030.35 199.18C1030.35 199.78 1030.23 200.333 1029.99 200.84C1029.77 201.333 1029.44 201.76 1029.01 202.12C1028.6 202.467 1028.09 202.74 1027.49 202.94C1026.91 203.14 1026.25 203.24 1025.53 203.24C1024.92 203.24 1024.37 203.173 1023.89 203.04C1023.43 202.907 1023.01 202.727 1022.63 202.5C1022.27 202.273 1021.95 202.02 1021.67 201.74C1021.41 201.46 1021.17 201.167 1020.95 200.86L1022.21 199.9C1022.4 200.18 1022.59 200.433 1022.79 200.66C1022.99 200.887 1023.22 201.087 1023.47 201.26C1023.74 201.42 1024.04 201.547 1024.37 201.64C1024.71 201.733 1025.09 201.78 1025.53 201.78C1026.52 201.78 1027.27 201.553 1027.79 201.1C1028.33 200.647 1028.59 200 1028.59 199.16V199C1028.59 198.173 1028.33 197.533 1027.81 197.08C1027.31 196.627 1026.54 196.4 1025.51 196.4H1023.85V194.96H1025.39Z" fill="white" fill-opacity="0.5"/>
</svg>
